<?xml version="1.0" encoding="UTF-8" standalone="no"?>
<svg
   xmlns:osb="http://www.openswatchbook.org/uri/2009/osb"
   xmlns:dc="http://purl.org/dc/elements/1.1/"
   xmlns:cc="http://creativecommons.org/ns#"
   xmlns:rdf="http://www.w3.org/1999/02/22-rdf-syntax-ns#"
   xmlns:svg="http://www.w3.org/2000/svg"
   xmlns="http://www.w3.org/2000/svg"
   xmlns:sodipodi="http://sodipodi.sourceforge.net/DTD/sodipodi-0.dtd"
   xmlns:inkscape="http://www.inkscape.org/namespaces/inkscape"
   viewBox="0 0 516 650"
   height="650.0pt"
   width="516.0pt"
   version="1.1"
   id="svg2"
   inkscape:version="0.92.3 (2405546, 2018-03-11)"
   sodipodi:docname="CoolkevInkscapedFilled.svg">
  <metadata
     id="metadata90">
    <rdf:RDF>
      <cc:Work
         rdf:about="">
        <dc:format>image/svg+xml</dc:format>
        <dc:type
           rdf:resource="http://purl.org/dc/dcmitype/StillImage" />
        <dc:title></dc:title>
      </cc:Work>
    </rdf:RDF>
  </metadata>
  <defs
     id="defs88">
    <linearGradient
       id="linearGradient5098"
       osb:paint="solid">
      <stop
         style="stop-color:#000000;stop-opacity:1;"
         offset="0"
         id="stop5096" />
    </linearGradient>
  </defs>
  <sodipodi:namedview
     pagecolor="#ffffff"
     bordercolor="#666666"
     borderopacity="1"
     objecttolerance="10"
     gridtolerance="10"
     guidetolerance="10"
     inkscape:pageopacity="0"
     inkscape:pageshadow="2"
     inkscape:window-width="1920"
     inkscape:window-height="1028"
     id="namedview86"
     showgrid="false"
     inkscape:zoom="5.6568543"
     inkscape:cx="211.57975"
     inkscape:cy="390.57086"
     inkscape:window-x="0"
     inkscape:window-y="0"
     inkscape:window-maximized="1"
     inkscape:current-layer="svg2"
     inkscape:pagecheckerboard="true" />
  <path
     style="fill:#ffffff;fill-opacity:1;stroke:none;stroke-width:0.75px;stroke-linecap:butt;stroke-linejoin:miter;stroke-opacity:1"
     d="m 360.84812,103.88638 -11.29668,-7.423526 -13.55601,-6.455243 -15.49259,-2.5821 -10.65115,0.645525 -7.8109,1.626124 c -1.41993,0.741754 -3.02988,1.342344 -5.06287,2.976222 -1.08489,0.871911 -6.66635,1.186869 -12.82149,3.908514 -7.21876,3.764034 -12.12552,7.825404 -14.84966,15.883284 -2.10203,6.13293 -2.72774,15.00932 -2.43194,14.63948 l 0.0495,1.63441 6.77801,21.94783 12.91048,30.33965 6.13249,20.01125 5.16419,18.72021 6.77801,25.49821 2.25933,15.49259 0.64553,13.55601 0.32276,14.84706 -3.22762,11.29667 -4.84143,8.39182 -9.03735,8.39181 -6.45524,5.1642 -3.87315,-0.64552 6.45524,-12.26497 5.1642,-18.07468 0.64553,-17.75192 -1.93658,-18.07468 -6.45524,-23.23888 -8.06905,-24.52992 -10.00563,-21.30231 -7.7463,-13.55601 -9.03734,-13.87877 -10.65115,-14.84706 -10.00563,-11.29668 -9.68286,-9.03734 L 206.5678,111.95544 193.33455,100.98153 181.39234,91.298661 167.19081,80.324744 145.24298,64.186637 126.20001,51.598912 108.44809,39.656711 91.341696,30.619371 71.007679,21.904791 54.86957,15.126786 34.858315,9.3170669 l -4.51867,0.3227617 9.682865,8.7145794 6.455244,4.841433 14.524298,20.334017 12.910487,15.169822 15.492582,21.302301 12.910489,18.72021 6.45525,11.619439 12.7491,21.14092 9.84425,18.23606 5.16419,11.45806 c 1.79111,3.83297 2.02772,4.7791 3.2611,8.09317 0.38037,1.02204 0.32136,0.64873 0.7219,1.40661 0.81127,1.53506 2.00817,3.93396 2.0733,5.51969 0.10056,2.44819 2.83694,6.71108 3.5053,8.31386 l 3.18751,6.84494 0.66784,4.7009 2.28228,9.58555 3.87986,7.75973 5.24923,15.97591 v 4.79277 c -3.62412,0.77848 -6.72269,-0.81638 -9.83907,-2.3317 -4.07057,-1.97929 -7.90607,-4.42535 -11.84253,-6.1127 -5.4909,-3.51874 -9.74896,-9.29769 -16.47271,-10.55622 -7.64379,0.74822 -10.85194,-3.30883 -16.27791,-4.96325 -4.54553,-2.52409 -9.148108,-3.91535 -13.123066,-3.87986 l -8.900873,5.24923 -6.846817,8.67264 -10.042001,4.33632 -21.649561,0.64788 c -3.282567,0.37497 -6.332757,0.84216 -10.986947,5.51425 -4.070803,6.6371 -4.307203,9.12884 -4.13662,13.29425 0.788336,3.89831 2.085197,5.85796 3.223711,8.38735 l 5.591569,5.64863 c 0.902672,1.80712 3.458734,-2.79677 7.075047,-1.5976 l 18.3723,-11.12608 11.867819,-7.30327 14.60655,-2.5105 14.834779,3.87986 8.44441,4.1081 c 9.57813,6.29422 12.04839,15.02542 18.04598,22.54725 3.67958,1.75136 8.70208,8.43296 13.23325,13.55601 6.16154,3.36757 10.39067,7.67819 13.87877,12.26496 l 3.06624,3.38901 h -5.32557 l -9.68286,-0.64553 -7.54023,0.0398 -10.2117,1.08993 -9.11803,2.17864 -8.4725,3.38901 -7.7463,7.26214 -4.51867,14.92776 -1.936569,17.26777 0.96828,13.55601 2.420719,8.39182 5.00281,6.61663 8.23044,2.42071 7.74629,-1.45243 7.26215,-6.93939 6.45525,-8.23043 5.32557,-8.06905 6.13249,-11.45806 c 2.93963,0.56596 3.06976,4.85778 3.95383,8.14974 -2.96267,3.35792 3.36953,-4.88158 3.77561,-0.69933 2.58704,-1.1069 -0.003,-4.3695 2.36038,-5.10285 2.65614,-0.82436 0.24348,-3.52736 3.67135,-3.87562 2.23214,-0.22677 1.67569,-2.32016 4.93957,-3.00065 5.47811,-1.14215 13.88251,3.81997 16.3342,3.21485 -10.32432,1.89729 -18.92476,18.62 -27.52348,35.35741 -1.59892,5.70142 -7.03755,13.19961 -8.47975,18.32461 l -2.42072,7.74629 -2.98555,9.11803 -2.74348,9.52148 -2.5821,8.14975 1.12967,5.48696 4.2766,4.03452 7.6656,3.55039 5.16419,0.56483 6.37456,-3.22761 4.92212,-9.03735 4.2766,-11.37737 c 5.37122,-1.98049 10.65137,-4.65949 15.65369,-9.46969 l 7.10105,32.95065 8.55319,25.65959 19.94922,60.18208 10.49846,32.75063 8.67264,22.48038 9.69966,23.27919 6.50448,11.29726 5.13511,6.84682 5.021,2.16816 3.87987,-3.08107 4.10809,-7.41739 14.60654,-26.13203 26.47437,-44.96078 19.28522,-39.59744 16.77471,-39.71156 13.12306,-37.20105 7.18917,-28.64253 8.44441,-34.2341 7.67467,35.16166 9.19872,32.11483 5.1642,12.10359 6.77801,9.84424 2.74348,1.45243 6.45524,-11.9422 1.45243,-9.03734 -6.29386,-9.52148 -5.32558,-16.78364 -4.35729,-22.43197 -2.74348,-24.52992 0.80691,-25.98236 1.45243,-20.01126 5.48696,-19.04296 7.90767,-12.91049 3.06624,-1.12967 8.39181,0.96829 8.23044,5.16419 11.78082,9.84425 10.00563,6.93939 4.84143,3.22762 -0.32276,-14.5243 -5.48695,-24.52992 -11.94221,-30.17827 -15.65396,-35.34246 -15.97673,-30.33964 -11.61944,-15.49259 -3.389,-2.74348 -1.93658,-7.42353 -7.74629,-10.81253 -10.48977,-10.48977 -8.39181,-8.87596 -7.7463,-5.9711 z"
     id="path5075"
     inkscape:connector-curvature="0"
     sodipodi:nodetypes="ccccccscccccccccccccccccccccccccccccccccccccccccccccccccccssscccccccsccccccccccccccccccccccccccccccccccccccccccsssccccccccccccccccccccccccccccccccccccccccccccccccccccccccccccccccccc" />
  <path
     d="m 41.67,8.84 c 8.65,1.45 17.06,5.5 24.99,9.22 3.57,1.53 7.28,1.96 10.84,3.53 12.42,6.21 24.92,11.99 36.88,19.09 5.36,4.54 11.67,7.42 17.2,11.71 4.86,3.62 10.07,6.64 15.23,9.79 6.61,4.02 12.18,9.24 18.54,13.59 3.49,2.44 6.31,5.59 9.74,8.09 4.96,3.66 9.98,7.37 14.55,11.5 5.81,5.23 12.12,9.83 18,15 3.93,3.44 7.14,7.48 11.12,10.85 4.81,4.1 10.08,8.06 13.87,13.16 3.13,4.19 6.42,8.13 9.95,11.98 3.79,4.14 6.19,9.07 9.63,13.44 2.21,2.87 4.34,5.75 6.07,8.95 4.18,7.88 9.08,15.07 12.54,23.36 1.4,3.58 2.96,6.87 4.91,10.19 4.63,7.97 5.65,16.34 9.28,24.99 4.16,9.95 6.21,20.28 8.84,30.79 2.24,11.1 2.31,22.73 0.96,33.95 -1.34,9.76 -5.94,17.69 -8.87,26.86 6.03,-4.81 12.21,-10.36 15.65,-17.39 3.58,-6.72 4.27,-15.16 3.91,-22.65 -0.25,-6.28 0.16,-12.14 -0.88,-18.37 -1.65,-9.96 -3.03,-20.31 -6.06,-29.95 -2.37,-6.99 -3.13,-14.31 -5.75,-21.24 -3.33,-8.59 -4.4,-17.66 -8.01,-26.13 -2.61,-6.09 -4.61,-12.37 -7.63,-18.29 -4.57,-11.22 -8.88,-22.97 -11.43,-34.83 -0.56,-3.06 -0.22,-4.74 1.4,-7.4 2.07,5.74 2.68,11.81 4.78,17.52 7.07,17.92 14.89,34.39 20.33,52.5 2.11,7.19 5.01,14.05 6.78,21.34 4.04,16.32 8.94,33.29 10.4,50.07 0.2,5.57 1.14,11.13 1.08,16.7 -0.6,7.71 -1.84,15.74 -4.85,22.91 -2.06,4.91 -5.85,7.83 -9.5,11.47 -3.47,3.43 -7.66,7.38 -12.35,8.97 -2.15,0.78 -4.71,-0.26 -6.86,-0.75 2.33,-5.11 4.8,-10.15 7.17,-15.24 3.41,-7.15 5.16,-15.25 6.02,-23.08 1.43,-18.74 -2.48,-36.32 -8.32,-53.98 -3.21,-8.87 -4.96,-17.93 -9.61,-26.24 -3.92,-9.76 -8.47,-19.16 -13.81,-28.23 -4.75,-7.25 -9.05,-14.83 -14.2,-21.8 -9.37,-11.98 -19.18,-23.32 -30.65,-33.37 -6.36,-6.36 -13.44,-11.85 -20.09,-17.88 -4.29,-3.74 -8.93,-7.08 -13.4,-10.58 -10.64,-8 -20.67,-16.91 -31.78,-24.22 C 139.74,62.49 130.46,57.43 122.1,50.93 108.03,41.76 93.26,33.76 77.87,27.03 71.26,23.52 64.22,21.32 57.19,18.85 50.86,16.83 44.73,14.37 38.22,12.92 c 4.03,2.95 7.88,5.91 10.82,10.02 3.48,4.87 6.92,9.76 10.4,14.62 3.05,4.26 6.78,7.91 9.71,12.26 5.31,7.84 12.17,14.74 17.47,22.6 3.5,4.98 6.05,10.34 9.84,15.15 4.58,5.94 10.40926,12.90284 12.16926,20.33284 C 106.54926,106.68284 103.27,104.4 102.13,102.21 98.31,95.33 92.99,89.61 88.91,82.87 85.26,77 80.46,72.06 76.75,66.25 74.51,62.83 71.65,60.05 68.88,57.09 65.28,53 62.34,48.37 58.73,44.28 52.96,37.68 48.32,30.03 42.45,23.54 37.78,19.25 31.65,16.31 27.3,11.39 25.86,9.96 26.37,9 27.12,7.37 c 5.2,-2.32 9.42,0.49 14.55,1.47 z"
     id="path6"
     inkscape:connector-curvature="0"
     style="fill:#080808"
     sodipodi:nodetypes="cccccccccccccccccccccccccccccccccccccccccccccccccccccccccccccccccccc" />
  <path
     d="m 312.76,86.58 c 6.09,-0.12 12.23,0.61 18.27,1.37 5.95,0.79 10.4,3.66 15.67,6.22 3.21,1.56 9.16031,3.994629 11.95031,6.24463 C 355.86976,102.01202 350.23,99.21 347.39,97.61 c -11.6,-6.63 -25.2,-9.14 -38.45,-8.17 -4.48,0.35 -8.8075,2.508125 -12.79,3.69 0.11,-0.89 0.25043,-1.353976 1.00947,-2.365697 C 301.60828,87.226763 307.27,86.99 312.76,86.58 Z"
     id="path8"
     inkscape:connector-curvature="0"
     style="fill:#080808"
     sodipodi:nodetypes="ccccccccc" />
  <path
     d="m 403.35172,345.39721 c -1.59,-1.6 -2.97172,-3.3986 -2.91172,-5.8186 -0.44,-12.45 0.79,-25.84861 4.25,-37.83861 2.01,-7.29 3.17,-14.11 7.57,-20.46 1.67,-2.39 3.92,-5.67 6.84,-6.53 4,-1.06 8.74,1.22 12.42,2.7 6.74,2.65 11.71,7.3 16.9,12.17 4.43,3.9 9.2,7.43 14.2,10.55 0,-12.88 -3.46,-24.59 -7.17,-36.81 -6.33,-19.05 -14.93,-36.66 -22.9,-54.97 -2.62,-5.05 -5.58,-9.88 -7.8,-15.16 -5.44,-11.69 -11.49,-23.53 -18.94,-34.08 -2.22,-3.28 -5.86,-3.15 -9.35,-4.28 1.06,-4.62 0.89,-8.57 -1.6,-12.75 -4.21,-6.83 -9.22,-13.43 -15.39,-18.62 -4.67,-4.13 -7.54,-9 -12.5,-12.55 -4.33,-3.09 -8.52,-6.27 -12.06,-10.27 1.19,-0.2 2.43,-0.42 3.64,-0.43 1.8,1.21 3.3,2.91 4.95,4.31 3.49,3.06 7.34,5.07 10.59,8.35 3.29,3.2 5.59,7 9.04,9.97 5.93,4.98 11.48,11.04 14.95,18.01 1.95,3.81 2.23,7.83 5.25,10.72 6.66,6.41 11.65,14.95 16.07,23 3.82,6.15 7.01,12.64 9.86,19.29 1.84,4.36 4.69,8.14 6.39,12.59 1.81,4.67 3.93,9.2 6.04,13.74 2.94,7.08 7.09,13.45 9.47,20.79 4.9,10.81 8.67,22.09 11.48,33.62 1.5,5.78 3.82,11.35 3.98,17.41 0.1,4.75 0.29,9.46 0.05,14.2 -6.92,-2 -11.71,-6.33 -17.3,-10.62 -3.37,-2.61 -6.29,-5.71 -9.55,-8.45 -4.81,-3.78 -10.4,-7.04 -16.35,-8.63 -2.67,-0.79 -4.57,0.77 -6.3,2.59 -4.07,4.6 -6.62,10.61 -7.93,16.57 -2.57,9.57 -4.26,19.49 -4.79,29.39 0.23,5.78 -0.23828,12.57721 -1.09828,18.29721"
     id="path10"
     inkscape:connector-curvature="0"
     style="fill:#080808"
     sodipodi:nodetypes="cccccccccccccccccccccccccccccccccccccc" />
  <path
     d="m 109.26,108.67 c 3.17,3.78 6.35,7.25 8.38,11.7 2.7,5.9 6.5,11.12 8.99,17.13 3.81,8.72 9.16,16.37 12.26,25.42 0.0516,2.02065 -0.32279,1.98726 -2.16785,1.44177 C 132.60709,158.02995 130.42,150.98 126.54,144.48 c -3.3,-7.45 -8.16,-13.9 -11.67,-21.24 -2.67,-5.81 -8.78085,-15.0435 -12.40085,-20.2535 1.79,0.19 5.57085,4.0435 6.79085,5.6835 z"
     id="path12"
     inkscape:connector-curvature="0"
     style="fill:#080808"
     sodipodi:nodetypes="ccccccccc" />
  <path
     d="m 138.72,166.35 c 1.41172,1.01268 3.33162,2.68398 3.7,4.72 -1.93688,0.51904 -2.33704,-0.38694 -4.34,-0.41 -0.0887,-1.75952 0.11613,-2.88 0.64,-4.31 z"
     id="path14"
     inkscape:connector-curvature="0"
     style="fill:#080808"
     sodipodi:nodetypes="cccc" />
  <path
     d="m 141.75,173.23 c 0.97602,0.0844 1.36387,0.80263 1.6,1.48 0.0296,1.33516 0.9978,1.81306 1.17,2.94 -1.08522,0.16258 -2.54559,0.53296 -3.22,-0.05 -0.0122,-1.58172 0.27,-2.92 0.45,-4.37 z"
     id="path16"
     inkscape:connector-curvature="0"
     style="fill:#080808"
     sodipodi:nodetypes="ccccc" />
  <path
     d="m 143.79,180.09 c 2.6,0.38 1.69957,1.68924 2.3,4.42 -1.4983,-0.83074 -2.02837,-2.60442 -2.3,-4.42 z"
     id="path18"
     inkscape:connector-curvature="0"
     style="fill:#080808"
     sodipodi:nodetypes="ccc" />
  <path
     style="fill:#080808"
     d="M 187.96875 235.34375 C 185.68945 235.46504 183.26016 237.49687 181.30078 238.3125 C 182.82904 241.94057 186.19738 246.85399 186.49219 249.19531 C 186.09318 254.73194 189.68704 259.34975 192.38672 263.82422 C 186.64799 265.66897 182.69173 270.48519 183.19922 272.94922 C 184.04463 273.80073 188.06211 270.31328 190.47461 268.98828 C 193.94961 274.25078 196.21211 279.9125 197.28711 286.125 C 198.46211 292.7625 200.34961 299.18828 202.34961 305.61328 C 197.81211 307.42578 193.52422 309.48672 188.69922 310.51172 C 182.42422 311.93672 177.44922 315.09922 171.57422 317.76172 C 171.47422 311.89922 171.85 306.06289 172.125 300.21289 C 170.97578 299.48444 169.85423 298.92947 168.11328 299.25 C 166.55336 301.04086 165.54767 303.21055 165.36328 306.02539 C 166.35983 306.5872 168.14961 305.74961 169.53711 305.59961 C 167.79961 309.91211 165.31328 315.23672 165.98828 319.94922 C 166.53828 323.02422 167.82422 326.91289 171.26172 327.71289 C 174.93672 326.61289 178.2625 323.53789 181.3125 321.27539 C 187.5875 315.95039 197.43828 314.68672 205.30078 313.01172 C 206.20078 316.61172 206.92422 320.58828 208.69922 323.86328 C 210.17422 324.83828 211.96211 325.45 213.59961 326.125 C 213.08711 321.55 212.22578 317.06289 211.48828 312.52539 C 215.18828 312.76289 218.93828 312.8125 222.61328 313.3125 C 224.60078 313.4375 224.94961 315.05 225.84961 316.5 C 229.37461 323.7625 231.4375 331.98672 233.5625 339.76172 C 231.1125 343.12422 227.51289 346.58711 228.33789 351.16211 C 229.86289 358.91211 233.19961 366.92578 238.34961 372.98828 C 241.14961 376.43828 245.26211 376.11211 249.28711 376.91211 C 249.18711 364.88711 244.61328 355.2625 241.05078 344.125 C 245.23828 344.025 249.525 343.8375 253.6875 344.3125 C 258.5375 344.8875 263.61172 348.89922 268.51172 348.57422 C 270.78672 348.44922 271.92539 345.27422 272.52539 343.44922 C 273.88789 336.99922 272.03828 329.35039 270.73828 322.96289 C 268.60078 312.67539 263.96289 303.86211 260.15039 293.84961 C 257.38789 286.54961 251.82539 281.02461 244.96289 277.47461 C 238.92539 274.36211 233.11172 270.27539 226.76172 268.08789 C 221.61172 266.36289 212.20219 262.85161 210.82422 265.375 C 210.48522 267.15764 218.44922 270.95 223.32422 272.8125 C 236.24922 277.65 250.80078 286.69961 256.30078 299.97461 C 261.88828 313.42461 266.71172 326.72422 266.69922 341.51172 C 262.02422 339.34922 257.28672 336.3125 252.26172 335.125 C 247.86172 334.3 242.95 335.425 238.5 335.8125 C 236 327.6375 232.8125 319.71211 229.3125 311.91211 C 226.5125 305.81211 224.62578 299.375 221.98828 293.1875 C 219.26328 286.025 215.13672 279.7 212.82422 272.375 C 210.14922 263.825 205.58672 255.78672 200.32422 248.57422 C 197.28672 244.28672 194.81328 238.78711 190.17578 235.97461 C 189.47266 235.47461 188.72852 235.30332 187.96875 235.34375 z M 189.34961 242.6875 C 193.76211 247.8875 197.53789 253.51328 200.21289 259.80078 C 201.35039 262.03828 200.36172 264.80078 200.07422 267.17578 C 195.01677 262.7427 191.24367 254.44416 189.82617 249.52344 C 190.20219 248.17655 189.27552 244.8854 189.34961 242.6875 z M 201.50781 270.42969 C 205.42299 272.38211 208.86423 270.70611 212.30664 273.06836 C 211.61335 283.12371 219.04453 291.35586 222.08203 300.75586 C 220.08203 301.05586 218.36467 300.88305 216.0957 301.67969 C 212.4763 298.69754 209.8407 295.43884 208.85742 291.09375 C 206.25742 284.29375 201.99667 277.14442 201.50781 270.42969 z M 206.36328 301.15039 C 210.73828 302.01289 213.37539 304.86328 216.33789 307.92578 C 213.40039 307.23828 210.13711 306.66289 207.47461 305.21289 C 206.99961 303.90039 206.63828 302.53789 206.36328 301.15039 z M 235.55078 348.01172 C 239.93828 354.28672 241.5875 361.64922 243.1875 369.01172 C 238.725 362.72422 235.92578 355.77422 235.55078 348.01172 z "
     transform="scale(0.8,0.8)"
     id="path20" />
  <path
     d="m 97.26,205.83 c -1.984748,2.74097 -6.32,3.26 -9.38,5.12 -2.72,2.15 -3.67,6.34 -6.29,8.64 -4.01,3.53 -8.815371,7.1514 -14.49,7.46 -1.168073,0.0767 -2.73174,-4.70549 0.32,-5.41 2.66,-0.57 5.62,-0.96 8.07,-2.18 3.8,-2.63 5.54,-7.99 9.06,-10.78 3.63,-2.2 8.324825,-3.41856 12.71,-2.85 z"
     id="path22"
     inkscape:connector-curvature="0"
     style="fill:#080808"
     sodipodi:nodetypes="cccccccc" />
  <path
     d="M 98.35 206.21 C 100.12 205.03 101.29 207.82 99.18 208.23 C 98.06 207.90 97.78 207.23 98.35 206.21 Z"
     fill="#080808"
     id="path24" />
  <path
     d="m 403.48,344.83353 c 0.69,5.44 -0.15,14.34647 0.45,19.77647 0.78,4.94 1.82,9.8 2.27,14.79 0.45,7.07 2.22,14.15 3.53,21.12 1.31,7.14 4,14.06 7.49,20.4 1.78,3.23 4.56,5.89 6.15,9.19 0.24,9.33 -4.58,15.41 -8.81,23.1 -2.49,-0.64 -5.31,-0.59 -6.98,-2.8 -2.96,-3.51 -5.13,-7.83 -7.03,-11.98 -2.14,-4.64 -4.55,-8.94 -6.16,-13.82 -3.99,-11.61 -6.37,-23.8 -9.22,-35.73 -1.87,-7.44 -1.99,-15.13 -3.59,-22.59 -4.18,14.92 -7.35,30.16 -11.18,45.18 -1.76,5.9 -3.5,11.81 -5.15,17.74 -4.97,15.07 -11.17,29.52 -16.84,44.21 -8.87,20.9 -18.23,41.56 -27.98,62.06 -5.02,8.43 -9.05,17.35 -14.26,25.68 -8.5,14.01 -17.5,27.45 -25.03,42.02 -2.93,5.13 -5.1,10.73 -8.3,15.68 -1.71,2.57 -4.31,4.43 -7.44,2.92 -7.71,-3 -10.84,-10.08 -14.45,-16.87 -4.22,-6.91 -6.82,-14.44 -10.06,-21.8 -4.09,-9.3 -6.7,-19.1 -10.73,-28.42 -4.25,-11.31 -7.56,-23 -11.31,-34.49 -2.01,-5.96 -4.59,-11.65 -6.33,-17.72 -1.59,-5.55 -3.45,-11 -5.57,-16.38 -2.45,-6.23 -3.6,-12.8 -5.96,-19.06 -2.26,-6.09 -4.16,-12.22 -5.73,-18.52 -2.57,-10.03 -5.84,-19.82 -7.95,-29.96 -2.27,-8.6 -3.37,-17.35 -5.04,-26.06 -2.16,-10.53 -3.77,-21.22 -5.21,-31.87 -0.53,-3.96 -1.8,-8.49 -0.98,-12.41 3.1,-0.81 3.55,3.25 4.06,5.36 2.65,19.05 6.32,37.86 9.74,56.77 2.06,9.3 4.19,18.56 7.06,27.65 2.87,9.63 4.91,19.45 8.09,28.99 3.22,9.46 5.91,19.17 9.53,28.46 3.34,8.3 5.46,17 8.67,25.35 2.35,6.01 3.9,12.23 5.72,18.4 2.39,7.39 5.04,14.72 7.85,21.97 4.65,12.18 8.69,24.83 14.52,36.51 3.32,6.16 6.37,13.67 11.48,18.51 1.41,1.19 3.87,3.01 5.56,1.37 3.27,-3.13 5.04,-8.02 7.4,-11.86 2.7,-4.4 4.66,-9.18 7.38,-13.57 3.96,-6.36 7.58,-12.9 11.84,-19.08 4.97,-8.65 10.2,-17.14 15.31,-25.71 5.32,-10.33 10.41,-20.77 15.77,-31.09 3.44,-8.71 7.49,-17.15 11.11,-25.79 2.48,-5.94 4.79,-11.94 7.52,-17.77 3.79,-7.88 6.07,-16.31 9.69,-24.26 7.54,-19.5 13.26,-39.79 17.8,-60.18 2.15,-10.02 5,-19.84 6.99,-29.89 1.28,-7.74 -1.72,-16.62 -2.31,-24.35 -0.6,-10.01 -1.65,-19.98 -2.08,-30.01 -0.18,-5.4 0.56,-10.59 0.64,-16.01 -0.34,-15.53 1.83,-31.2 4.26,-46.52 1.4,-8.31 2.49,-16.95 4.71,-25.07 0.74,-2.86 1.63813,-5.35545 3.75,-7.85 2.12276,0.96662 3.66517,2.76027 5.06,4.68 -1.22393,0.99615 -3.00731,-0.54677 -3.93,0.58 -1.68,5.44 -4.12,9.74 -4.92,15.26 -1.37,9.56 -3.26,18.69 -3.94,28.33 -0.34,4.67 -1.19,9.28 -1.63,13.94 -0.66,7.9 -0.23,15.77 -0.82,23.67 -1.09,11.15 1.04,22.95 2.37,34.01 0.3,4.93 0.77,9.79 2.12,14.56 2.25,-6.62 3.67,-12.97 1.15,-19.78 1.3,0.49 2.91,0.8 3.95,1.74 1.05,1.42 0.92,3.73 0.94,5.43 -0.31,10.45 -5.15,19.04 -3.89,29.02 1.06,8.08 2.26,16.19 4.06,24.15 2.44,14.71 6.57,29.46 11.67,43.46 3.2,7.31 5.47,14.23 11.39,19.91 3.08,-4.31 6.03,-8.43 6.8,-13.82 0.41,-2.1 -0.82,-3.66 -1.77,-5.42 -4.22,-6.64 -7.82,-14.14 -9.3,-21.92 -1.61,-8.4 -3.33,-16.86 -4.52,-25.33 -2.19,-12.36 -2.85344,-28.34647 -2.49344,-40.86647 1.09,1.4 2.87344,2.83 3.04344,4.68"
     id="path26"
     inkscape:connector-curvature="0"
     style="fill:#080808"
     sodipodi:nodetypes="cccccccccccccccccccccccccccccccccccccccccccccccccccccccccccccccccccccccccccccccc" />
  <path
     d="M 111.98 212.32 C 113.75 211.13 114.90 213.89 112.82 214.33 C 111.68 214.01 111.40 213.34 111.98 212.32 Z"
     fill="#080808"
     id="path28" />
  <path
     d="m 53.512182,222.62214 c 2.67,0.07 5.54,0 8.13,0.75 1.58377,0.35924 2.337643,2.00527 1.57,3.53 -5.66,-0.03 -13.775285,0.01 -16.85,-1.67 1.903545,-2.79109 4.32,-2.73 7.15,-2.61 z"
     id="path32"
     inkscape:connector-curvature="0"
     style="fill:#080808"
     sodipodi:nodetypes="ccccc" />
  <path
     d="m 144.35,221.76 c -0.0942,1.62303 -0.9,3.17 -1.33,4.76 2.89759,0.65055 5.70759,1.84117 8.51,3.15 1.03224,0.64251 0.62143,1.92928 -0.02,2.17 -3.63614,-0.32855 -7.18,-2.53 -10.76,-3.82 -0.9142,3.21607 -2.1042,6.49517 -3.89,9.35 -0.65035,-4.54 -0.87311,-8.90786 -0.66,-13.61 1.97841,-1.06731 5.32241,-1.65124 8.15,-2 z"
     id="path34"
     inkscape:connector-curvature="0"
     style="fill:#080808"
     sodipodi:nodetypes="cccccccc" />
  <path
     d="m 154.01,231.45 c 2.51,-0.57 3.17,1.42 4.76,2.9 -2.04,-0.17 -4.28517,0.10642 -6.1,-0.7 -0.0434,-0.65393 0.88,-1.48 1.34,-2.2 z"
     id="path36"
     inkscape:connector-curvature="0"
     style="fill:#080808"
     sodipodi:nodetypes="cccc" />
  <path
     d="M 89.05 232.64 C 96.93 232.94 104.89 235.48 111.87 239.09 C 115.12 240.80 117.10 242.62 118.56 246.05 C 111.20 244.79 105.04 240.51 97.56 239.47 C 90.90 237.93 84.06 239.75 77.55 241.39 C 72.97 242.56 70.19 245.76 66.32 248.31 C 63.06 250.60 59.13 251.62 56.12 254.11 C 53.64 256.12 50.87 258.77 47.80 259.79 C 45.76 260.27 44.35 258.56 43.49 256.96 C 44.04 253.93 47.29 252.98 49.54 251.46 C 55.08 248.63 58.93 243.89 64.79 241.61 C 72.59 237.35 80.06 233.67 89.05 232.64 Z"
     fill="#080808"
     id="path38" />
  <path
     d="m 32.52,248.74 c 3.155311,0.44315 5.89,4.65 8.52,7.28 1.33,1.3 2.615061,3.35043 2.08,5.04 -6.05,-0.12 -11.578559,-7.45373 -10.6,-12.32 z"
     id="path42"
     inkscape:connector-curvature="0"
     style="fill:#080808"
     sodipodi:nodetypes="cccc" />
  <path
     d="M 131.88 263.84 C 134.86 265.74 136.28 267.19 137.45 270.64 C 133.92 269.33 133.04 267.14 131.88 263.84 Z"
     fill="#080808"
     id="path44" />
  <path
     d="M 137.80 269.67 C 140.84 271.00 143.10 273.23 145.25 275.69 C 147.68 278.56 150.42 281.13 152.93 283.93 C 150.44 283.15 148.14 282.79 146.24 280.84 C 143.11 277.53 139.25 274.03 137.80 269.67 Z"
     fill="#080808"
     id="path46" />
  <path
     d="m 153.08,286.09 c 2.61,0.89 5.1,1.75 7.17,3.66 4.72,4.11 9.31,8.25 14.78,11.37 -0.11,1.08 -0.22,2.17 -0.34,3.25 -3.8,-1.36 -7.15,-3.35 -10.49,-5.59 -4.51,-3.28 -13.70478,-1.43876 -18.77478,-3.36876 -0.86,-0.73 -0.59406,-1.92048 0.16678,-2.78124 5.03,-0.17 9.608,0.71 14.628,0.88 -2.28,-2.58 -4.77,-4.94 -7.14,-7.42 z"
     id="path50"
     inkscape:connector-curvature="0"
     style="fill:#080808"
     sodipodi:nodetypes="ccccccccc" />
  <path
     d="m 145.59794,292.6216 c -0.01,1.65 0.554,1.18128 0.494,2.83128 -0.86,-0.04 -8.17524,0.18821 -9.20738,0.66463 -1.80739,0.0882 1.07603,-0.94186 2.24957,-2.30538 1.61,-0.62 4.83381,-0.65053 6.46381,-1.19053 z"
     id="path52"
     inkscape:connector-curvature="0"
     style="fill:#080808"
     sodipodi:nodetypes="ccccc" />
  <path
     d="m 139.98,293.77 c 0.57023,-0.0635 -2.97,2.89 -5.01,2.87 -4.98,0.14 -11.86175,2.13249 -16.79175,2.63249 4.94,-4.4 15.54175,-5.33249 21.80175,-5.50249 z"
     id="path54"
     inkscape:connector-curvature="0"
     style="fill:#080808"
     sodipodi:nodetypes="cccc" />
  <path
     d="m 123.94171,296.73218 c -2.17,1.68 -9.05171,5.36782 -11.29171,6.95782 -2.61,1.85 -4.75086,4.66392 -6.75086,7.15392 -0.45,-0.68 -2.22625,-0.98268 -2.67625,-1.66268 1.34,-2.19 3.80711,-5.20124 5.71711,-6.96124 2.87,-2.05 11.61171,-4.83782 15.00171,-5.48782 z"
     id="path56"
     inkscape:connector-curvature="0"
     style="fill:#080808"
     sodipodi:nodetypes="cccccc" />
  <path
     d="M 155.17 368.48 C 156.81 367.58 158.22 369.47 156.81 370.75 C 155.15 371.66 153.75 369.76 155.17 368.48 Z"
     fill="#080808"
     id="path68" />
  <path
     d="m 312.41821,382.68642 c 4.05478,0.18053 6.64523,1.81637 9.11523,4.95637 -3.75,-0.19 -8.23344,0.78721 -11.64344,-0.92279 0.27,-1.86 1.11821,-2.76358 2.52821,-4.03358 z"
     id="path70"
     inkscape:connector-curvature="0"
     style="fill:#080808"
     sodipodi:nodetypes="cccc" />
  <path
     d="M 149.84 382.52 C 149.04 387.31 147.75 392.03 146.46 396.70 C 145.26 396.35 144.06 396.00 142.86 395.65 C 144.77 390.86 146.14 386.31 149.84 382.52 Z"
     fill="#080808"
     id="path72" />
  <path
     d="m 238.7,394.37 c 3.54,-1.88797 6.84393,-0.59105 10.29393,0.11895 -0.79,1.47 -0.38502,2.60572 -1.19502,4.07572 -3.42,-1.35 -7.60891,-0.42467 -9.09891,-4.19467 z"
     id="path74"
     inkscape:connector-curvature="0"
     style="fill:#080808"
     sodipodi:nodetypes="cccc" />
  <path
     d="m 143.01549,395.30332 c 0.96,0.24 3.92807,-0.75979 3.66807,0.56021 -0.64,4.55 -4.51356,12.24647 -5.32356,16.78647 -0.67,3.58 -2.73,7.54 -2.45,11.15 1.77,4.35 6.19,8.13 10.7,9.39 2.7,0.58 6.2,0.88 8.34,-1.23 5.45,-5.33 6.87,-12.88 9.64,-19.59 1.07,-3.4 5.53,-4.36 8.37,-5.92 l 3,2.16 c -2.35,2.26 -5.45,4.22 -7.24,6.94 -2.06,5.61 -2.26,11.13 -5.9,16.24 -3.08,4.74 -7.62,8.38 -13.57,7.84 -4.85,-0.89 -9.43,-4.64 -12.93,-7.97 -1.91,-1.84 -4.47,-4.14 -5.13,-6.79 0.05,-2.37 0.92,-4.78 1.57,-7.05 2.17,-6.84 5.07549,-15.68668 7.25549,-22.51668 z"
     id="path76"
     inkscape:connector-curvature="0"
     style="fill:#080808"
     sodipodi:nodetypes="cccccccccccccccc" />
  <path
     d="M 283.06 431.89 C 286.46 430.85 288.61 434.65 289.80 437.21 C 291.73 441.94 293.86 447.72 293.01 452.87 C 292.42 456.47 288.92 459.11 285.29 458.45 C 282.22 457.69 279.33 455.97 276.40 454.79 C 273.95 453.70 271.30 453.11 268.89 451.97 C 267.05 450.76 265.85 448.40 264.68 446.58 C 268.10 446.10 271.17 444.70 274.38 446.65 C 278.18 448.93 281.69 451.57 285.74 453.44 C 286.51 452.81 287.29 452.18 288.07 451.55 C 287.38 448.40 286.67 445.26 285.89 442.13 C 284.98 438.56 283.53 435.54 283.06 431.89 Z"
     fill="#080808"
     id="path78" />
  <path
     d="M 298.93 460.18 C 300.55 461.47 302.04 462.92 303.60 464.28 C 304.97 467.72 306.98 469.70 309.85 471.91 C 311.31 470.53 312.78 469.16 314.29 467.83 C 313.77 471.19 313.35 474.87 311.94 477.99 C 310.82 480.30 308.78 481.59 306.83 483.15 C 304.97 478.88 305.67 475.08 306.42 470.67 C 303.46 473.85 300.99 477.37 298.53 480.95 C 298.00 479.40 297.14 477.73 297.11 476.08 C 297.37 474.15 298.18 472.25 298.84 470.42 C 297.27 471.29 295.68 472.13 294.07 472.94 C 295.58 468.62 297.67 464.59 298.93 460.18 Z"
     fill="#080808"
     id="path80" />
  <path
     d="M 273.15 462.68 C 274.54 463.43 275.90 464.25 277.26 465.06 C 275.39 469.27 273.47 472.90 274.31 477.69 C 277.73 474.05 280.57 470.05 284.24 466.64 C 284.31 472.18 280.66 475.92 276.70 479.23 C 273.93 479.44 271.12 478.74 268.32 478.77 C 270.21 475.53 271.47 472.43 272.34 468.77 C 269.80 470.85 267.69 473.84 264.82 475.42 C 260.13 475.80 259.80 471.91 258.34 468.57 C 255.99 469.75 253.48 471.20 250.89 471.67 C 249.08 471.59 247.26 470.58 245.60 469.91 C 250.85 467.61 255.81 464.73 261.07 462.47 C 262.02 466.15 262.38 469.60 261.98 473.39 C 265.58 469.69 269.50 466.33 273.15 462.68 Z"
     fill="#080808"
     id="path82" />
  <path
     d="m 254.64,485.23 c 0.83,3.55 -0.6,6.1 -2.61,8.9 3.84,-0.4 7.46662,1.19389 11.27662,1.56389 11.95,1.23 23.81252,3.71504 35.67338,3.31857 3.75,1 6.31065,0.69837 8.17065,4.16837 -6.77,0.99 -14.09065,1.91917 -20.52065,0.41917 -8.29,-1.04 -17.09035,-1.65572 -25.43035,-2.12572 -3.41,-0.41 -6.25965,-2.05428 -9.60965,-2.76428 0.11,2.1 0.23,4.2 0.34,6.3 -1.62,0.78 -3.27,1.63 -4.97,2.21 -1.79,-0.4 -2.53,-1.34 -2.43,-3.19 -0.17,-5.75 0.84,-13.1 5.05,-17.42 1.58,-1.21 3.15,-3.18 5.06,-1.38 z"
     id="path84"
     inkscape:connector-curvature="0"
     style="fill:#080808"
     sodipodi:nodetypes="ccccccccccccc" />
  <path
     inkscape:connector-curvature="0"
     style="fill:#080808"
     d="m 170.21466,328.17657 c -1.17,1.39 -1.81737,3.36566 -3.57,4.14 -1.56,0.87 -3.38,1.28 -4.95,2.11 -1.53,1.95 -2.48,4.31 -3.83,6.3 -1.98737,4.85368 -4.4993,4.71301 -6.66,6.18 -0.24752,-2.36904 -3.2542,-3.31785 -3.24,-5.29 2.25,-0.64818 4.81124,0.64856 6.77,-0.02 -0.2158,-1.34 -0.27945,-3.36856 0.45,-4.02 4.02,-0.68 5.1,-1.73 6.12,-5.59 3.58,-0.18 6.04,-1.89 8.91,-3.81 z"
     id="path3470"
     sodipodi:nodetypes="cccccccccc" />
  <path
     inkscape:connector-curvature="0"
     style="fill:#080808"
     d="m 103.24204,309.16778 c 1.17,1.12 1.56402,0.38375 2.71402,1.52375 -3.47,10.47 -5.88807,25.73594 -5.17807,36.71594 0.8,6.18 2.31,13.97 6.85,18.57 3.09,2.93 9.14,2.43 13.07,2.04 5.25,-2.31 9.71,-7.47 13.15,-11.94 4.35,-4.86 7.31,-10.69 11.38,-15.8 1.28,-2.44 2.56,-5.38 2.25,-8.2 -0.1,-2.2 0,-4.18 1.38,-6 1.64,-0.66 3.44,-0.99 5.16,-1.37 -0.71,2.63 -1.89,5.03 -2.98,7.51 -0.77,1.6 -0.22,3.73 -0.21,5.47 -1.35,0.66 -2.89,1.26 -4.04,2.23 -1.84,3.9 -3.35,7.96 -5.25,11.84 -2,4.5 -5.6,8.46 -8.51,12.49 -2.55,3.72 -7.44033,9.01078 -9.08,9.37 -4.16516,1.23152 -7.17344,1.72033 -10.54,1.64 -3.82,-1.52 -8.27,-3.99 -11.1,-6.98 -4.85,-8.08 -6.369999,-18.35 -5.21,-27.61 0.75,-4.54 0.09,-9.27 0.76,-13.81 1.01,-5.22 4.16405,-12.51969 5.38405,-17.68969 z"
     id="path3468"
     sodipodi:nodetypes="ccccccccccccccccccccc" />
</svg>
